<?xml version="1.0" encoding="UTF-8"?>
<svg id="Ebene_2" data-name="Ebene 2" xmlns="http://www.w3.org/2000/svg" viewBox="0 0 494.95 96.38">
  <defs>
    <style>
      .cls-1 {
        fill: #8bc5bb;
        stroke-width: 0px;
      }
    </style>
  </defs>
  <g id="Ebene_1-2" data-name="Ebene 1">
    <g>
      <g>
        <path class="cls-1" d="m77.28,47.87h7.06l11.33,19.73,11.33-19.73h7.06v29.26h-7.06v-17.39l-10.03,17.39h-2.63l-9.99-17.39v17.39h-7.06v-29.26Z"/>
        <path class="cls-1" d="m146.69,71.24v5.9h-26.38v-29.26h26.08v5.9h-19.02v5.81h16.22v5.85h-16.22v5.81h19.31Z"/>
        <path class="cls-1" d="m177.27,57.07c-2.68-2.34-7.73-3.81-11.66-3.81-3.09,0-5.43.88-5.43,2.89,0,5.1,20.61,1.25,20.61,12.92,0,6.44-6.69,9.03-13.96,9.03-5.94,0-12.29-1.71-15.84-4.47l3.47-5.85c2.76,2.55,8.65,4.14,13.08,4.14,3.09,0,5.52-.84,5.52-2.68,0-5.31-20.52-1.63-20.52-13.21,0-6.44,6.02-8.94,12.79-8.94,5.6,0,11.7,1.67,15.38,4.31l-3.43,5.68Z"/>
        <path class="cls-1" d="m186.27,47.87h7.06v11.66h16.14v-11.66h7.02v29.26h-7.02v-11.71h-16.14v11.71h-7.06v-29.26Z"/>
        <path class="cls-1" d="m222.78,47.87h7.06l11.33,19.73,11.33-19.73h7.06v29.26h-7.06v-17.39l-10.03,17.39h-2.63l-9.99-17.39v17.39h-7.06v-29.26Z"/>
        <path class="cls-1" d="m278.32,47.45h7.15l14.13,29.68h-7.48l-2.05-4.26h-16.38l-2.05,4.26h-7.48l14.17-29.68Zm-1.8,19.52h10.7l-5.35-11.16-5.35,11.16Z"/>
        <path class="cls-1" d="m304.22,47.87h7.06v12.08l12.96-12.08h8.94l-13.71,13.08,15.59,16.18h-9.19l-11.08-11.75-3.51,3.39v8.36h-7.06v-29.26Z"/>
        <path class="cls-1" d="m365.81,71.24v5.9h-26.38v-29.26h26.09v5.9h-19.02v5.81h16.22v5.85h-16.22v5.81h19.31Z"/>
        <path class="cls-1" d="m370.92,47.87h17.64c6.44,0,9.61,4.56,9.61,9.16,0,3.55-1.96,7.15-5.89,8.53l9.03,11.58h-8.86l-7.73-10.99h-6.73v10.99h-7.07v-29.26Zm7.07,12.42h8.86c2.68,0,4.01-1.63,4.01-3.26s-1.34-3.26-4.01-3.26h-8.86v6.52Z"/>
        <path class="cls-1" d="m429.84,57.07c-2.68-2.34-7.73-3.81-11.66-3.81-3.09,0-5.44.88-5.44,2.89,0,5.1,20.61,1.25,20.61,12.92,0,6.44-6.69,9.03-13.96,9.03-5.94,0-12.29-1.71-15.84-4.47l3.47-5.85c2.76,2.55,8.65,4.14,13.08,4.14,3.09,0,5.52-.84,5.52-2.68,0-5.31-20.52-1.63-20.52-13.21,0-6.44,6.02-8.94,12.79-8.94,5.6,0,11.71,1.67,15.38,4.31l-3.43,5.68Z"/>
        <path class="cls-1" d="m440.81,70.53c2.01,0,3.51,1.5,3.51,3.47s-1.5,3.55-3.51,3.55-3.51-1.55-3.51-3.55,1.59-3.47,3.51-3.47Z"/>
        <path class="cls-1" d="m449.05,47.87h7.07v29.26h-7.07v-29.26Z"/>
        <path class="cls-1" d="m478.32,78.09c-7.69,0-16.68-5.14-16.68-15.59s8.99-15.59,16.68-15.59,16.64,5.14,16.64,15.59-8.99,15.59-16.64,15.59Zm0-24.49c-4.39,0-9.49,2.92-9.49,8.9s5.1,8.86,9.49,8.86,9.45-2.88,9.45-8.86-5.1-8.9-9.45-8.9Z"/>
      </g>
      <g>
        <rect class="cls-1" x="29.1" y="52.74" width="4.85" height="33.94"/>
        <polygon class="cls-1" points="19.4 91.53 14.55 91.53 14.55 81.83 9.7 81.83 9.7 91.53 9.7 96.38 14.55 96.38 19.4 96.38 24.25 96.38 24.25 91.53 24.25 52.74 19.4 52.74 19.4 91.53"/>
        <polygon class="cls-1" points="48.49 91.53 43.64 91.53 43.64 52.74 38.79 52.74 38.79 91.53 38.79 96.38 43.64 96.38 48.49 96.38 53.34 96.38 53.34 91.53 53.34 81.83 48.49 81.83 48.49 91.53"/>
        <polygon class="cls-1" points="58.19 72.13 53.34 72.13 53.34 52.74 63.04 52.74 63.04 43.04 63.04 38.19 63.04 28.49 67.89 0 43.64 4.24 34.01 4.24 14.61 4.24 0 4.24 0 18.79 0 28.49 0 40.61 0 52.74 9.7 52.74 9.7 72.13 4.85 72.13 4.85 67.28 0 67.28 0 72.13 0 76.98 4.85 76.98 14.55 76.98 14.55 72.13 14.55 52.74 14.55 52.13 14.55 47.89 4.85 47.89 4.85 43.04 4.85 36.37 4.85 23.64 4.85 17.58 4.85 9.09 19.4 9.09 33.94 9.09 43.64 9.09 62.01 6.02 58.19 28.49 58.19 33.34 58.19 38.19 58.19 43.04 58.19 47.89 48.49 47.89 48.49 52.13 48.49 52.74 48.49 72.13 48.49 76.98 58.19 76.98 63.04 76.98 63.04 76.98 63.04 67.28 58.19 67.28 58.19 72.13"/>
        <rect class="cls-1" x="18.79" y="19.4" width="4.85" height="13.94"/>
        <rect class="cls-1" x="38.79" y="19.4" width="4.85" height="13.94"/>
      </g>
    </g>
  </g>
</svg>